#!OML:ASF Y:\EmotionMaleHayes\Project 1\Capture day 1\Session 1\Male1.ASF
:FULLY-SPECIFIED
:DEGREES
129
root 31.7398 16.5936 -1.74455 339.317 80.1835 356.187
lowerback 17.6346 4.94259 1.62494
upperback 4.62472 7.05429 0.259322
thorax -4.69681 3.568 -2.13385
lowerneck -23.562 -1.85454 1.32597
upperneck 29.703 -3.58745 2.1895
head 14.1342 -0.896575 0.026367
rclavicle -4.00862e-014 2.78299e-015
rhumerus -30.637 19.1673 -91.3142
rradius 78.3776
rwrist -9.20307
rhand -24.8009 -23.3602
rfingers 7.12502
rthumb 1.7039 -53.3332
lclavicle -4.00862e-014 2.78299e-015
lhumerus -78.748 -14.0946 92.5229
lradius 81.5896
lwrist 14.7065
lhand -33.608 -27.9276
lfingers 7.12502
lthumb -6.80112 1.94315
rfemur 7.79569 -0.235323 22.1322
rtibia 42.8757
rfoot -23.2031 1.35601
rtoes 3.33305
lfemur -13.9921 9.49198 -12.6575
ltibia 31.0038
lfoot -12.8923 10.3639
ltoes 0.616327
130
root 32.0265 16.6084 -1.75863 338.398 79.8982 355.244
lowerback 17.5026 5.05307 1.87133
upperback 4.40516 7.23134 0.244992
thorax -4.82167 3.64323 -2.32051
lowerneck -23.48 -1.96188 1.18153
upperneck 29.6153 -3.83621 2.64672
head 14.0983 -0.95358 0.189442
rclavicle 7.09397e-014 1.98785e-014
rhumerus -29.8305 20.9366 -92.0643
rradius 79.296
rwrist -9.2713
rhand -24.3046 -22.9715
rfingers 7.12502
rthumb 2.1832 -52.9401
lclavicle 7.09397e-014 1.98785e-014
lhumerus -80.6154 -14.279 92.2324
lradius 81.9373
lwrist 14.7619
lhand -33.4539 -27.8737
lfingers 7.12502
lthumb -6.65244 2.00179
rfemur 9.0326 -0.301981 21.962
rtibia 42.5675
rfoot -23.1955 1.90306
rtoes 1.88689
lfemur -13.1419 9.61566 -12.2185
ltibia 27.0158
lfoot -12.669 10.167
ltoes 3.5641
131
root 32.3123 16.6161 -1.77623 338.545 79.7922 355.335
lowerback 17.3387 5.12176 1.91464
upperback 4.13792 7.31152 0.161436
thorax -4.99922 3.66907 -2.44841
lowerneck -23.446 -2.0579 1.37614
upperneck 29.7426 -4.03758 2.60194
head 14.1432 -1.01741 0.102175
rclavicle 2.08103e-016 -2.66371e-014
rhumerus -29.1892 22.4217 -92.7678
rradius 80.2653
rwrist -8.97164
rhand -23.9418 -23.0043
rfingers 7.12502
rthumb 2.53353 -52.969
lclavicle 2.08103e-016 -2.66371e-014
lhumerus -82.5001 -14.4723 91.9885
lradius 82.3531
lwrist 14.9068
lhand -33.3749 -27.3301
lfingers 7.12502
lthumb -6.57619 2.54781
rfemur 10.1746 -0.464964 21.4596
rtibia 42.3459
rfoot -23.0103 2.45917
rtoes 0.29776
lfemur -12.4245 9.59646 -12.1719
ltibia 23.4854
lfoot -13.0538 9.91899
ltoes 5.43773
132
root 32.6116 16.6092 -1.79121 337.788 79.3842 354.307
lowerback 16.6943 5.21621 2.08986
upperback 3.90505 7.44266 0.190161
thorax -4.87931 3.72637 -2.48676
lowerneck -23.1788 -1.99122 1.84648
upperneck 29.674 -4.01177 2.30512
head 14.0364 -0.998875 -0.0893654
rclavicle -5.14666e-014 1.90833e-014
rhumerus -28.4747 23.8359 -93.3212
rradius 81.2389
rwrist -8.14094
rhand -24.3676 -22.3175
rfingers 7.12502
rthumb 2.12235 -52.2867
lclavicle -5.14666e-014 1.90833e-014
lhumerus -84.1653 -14.6424 91.7903
lradius 82.6975
lwrist 15.1255
lhand -33.278 -26.8189
lfingers 7.12502
lthumb -6.48256 3.06193
rfemur 10.9872 -0.327619 21.3925
rtibia 42.3214
rfoot -22.598 3.05433
rtoes 0.295514
lfemur -11.8984 9.6942 -11.7556
ltibia 20.406
lfoot -12.5593 9.75287
ltoes 3.60349
133
root 32.9099 16.5991 -1.80888 335.89 78.835 352.269
lowerback 16.2384 5.285 2.57036
upperback 3.73906 7.60143 0.297393
thorax -4.75698 3.79726 -2.62853
lowerneck -23.5034 -2.13538 1.5434
upperneck 29.8888 -4.2399 2.64945
head 14.2197 -1.06964 0.0555754
rclavicle -3.1731e-014 -2.78299e-014
rhumerus -27.7055 25.3025 -93.774
rradius 82.2445
rwrist -7.92159
rhand -24.5287 -22.3794
rfingers 7.12502
rthumb 1.96679 -52.3501
lclavicle -3.1731e-014 -2.78299e-014
lhumerus -85.5482 -14.9178 91.6527
lradius 82.8579
lwrist 15.3582
lhand -33.0017 -26.3815
lfingers 7.12502
lthumb -6.21586 3.50732
rfemur 11.7166 0.0542438 21.7433
rtibia 42.8542
rfoot -22.4615 3.41569
rtoes -0.826146
lfemur -11.246 9.62015 -11.0217
ltibia 17.8661
lfoot -12.7244 9.7223
ltoes 3.87993
